<?xml version="1.0" encoding="UTF-8" ?>
<!DOCTYPE svg PUBLIC "-//W3C//DTD SVG 1.1//EN" "http://www.w3.org/Graphics/SVG/1.1/DTD/svg11.dtd">
<svg width="1376pt" height="1121pt" viewBox="0 0 1376 1121" version="1.1" xmlns="http://www.w3.org/2000/svg">
<g id="#ffba26ff">
<path fill="#ffba26" opacity="1.00" d=" M 622.07 328.51 C 664.65 328.56 707.23 328.50 749.82 328.53 C 716.98 379.72 684.07 430.87 651.24 482.06 C 657.85 460.80 664.49 439.54 671.12 418.28 C 671.97 415.32 673.51 412.35 672.81 409.20 C 670.74 395.87 669.66 382.18 664.52 369.57 C 657.31 350.51 641.43 334.99 622.07 328.51 Z" />
<path fill="#ffba26" opacity="1.00" d=" M 753.19 446.42 C 770.32 419.78 787.41 393.13 804.55 366.51 C 804.57 408.01 804.56 449.52 804.55 491.02 C 787.41 476.18 770.31 461.28 753.19 446.42 Z" />
<path fill="#ffba26" opacity="1.00" d=" M 577.27 553.53 C 577.32 495.44 577.18 437.36 577.33 379.27 C 582.25 379.31 587.35 380.50 591.08 383.89 C 596.31 388.36 598.46 395.29 599.49 401.87 C 606.77 452.42 614.01 502.98 621.29 553.52 C 606.62 553.53 591.94 553.51 577.27 553.53 Z" />
<path fill="#ffba26" opacity="1.00" d=" M 681.63 470.69 C 713.44 498.29 745.22 525.91 777.01 553.53 C 749.19 553.53 721.36 553.54 693.54 553.52 C 689.60 525.91 685.61 498.30 681.63 470.69 Z" />
</g>
<g id="#04937eff">
<path fill="#04937e" opacity="1.00" d=" M 369.72 595.56 C 379.14 595.56 388.57 595.54 398.00 595.55 C 403.12 595.22 407.81 599.82 407.76 604.91 C 407.86 613.60 407.72 622.30 407.82 631.00 C 408.11 634.00 406.37 636.58 405.16 639.18 C 400.36 649.16 395.58 659.14 390.81 669.14 C 412.10 644.63 433.34 620.07 454.66 595.58 C 470.26 595.64 485.87 595.57 501.47 595.61 C 483.47 616.40 465.41 637.13 447.38 657.88 C 465.41 678.67 483.48 699.42 501.50 720.21 C 486.22 720.25 470.93 720.17 455.65 720.25 C 439.62 701.97 423.76 683.55 407.78 665.23 C 407.77 683.54 407.77 701.85 407.77 720.17 C 398.51 720.11 389.25 720.26 380.00 720.11 C 374.31 720.00 369.52 714.63 369.73 709.00 C 369.70 671.19 369.72 633.37 369.72 595.56 Z" />
<path fill="#04937e" opacity="1.00" d=" M 731.47 596.45 C 740.00 596.48 748.54 596.37 757.08 596.48 C 761.54 596.52 765.53 600.46 765.63 604.93 C 765.85 609.48 765.62 614.03 765.69 618.59 C 773.15 618.61 780.62 618.59 788.09 618.60 C 788.18 625.77 788.16 632.94 788.09 640.11 C 780.61 640.11 773.13 640.11 765.65 640.11 C 765.66 654.08 765.69 668.05 765.66 682.03 C 765.51 685.98 766.99 690.38 770.75 692.24 C 775.35 694.96 781.07 691.54 785.61 694.43 C 787.80 695.59 789.05 697.84 789.84 700.10 C 791.55 704.87 793.29 709.63 795.01 714.39 C 786.03 719.82 775.13 720.54 764.91 719.75 C 755.78 718.99 746.40 715.81 740.07 708.91 C 733.87 702.26 731.64 692.89 731.53 684.02 C 731.42 669.38 731.53 654.75 731.54 640.12 C 726.79 640.10 722.05 640.11 717.30 640.11 C 717.24 632.94 717.22 625.77 717.30 618.60 C 722.01 618.60 726.73 618.60 731.44 618.60 C 731.45 611.21 731.42 603.83 731.47 596.45 Z" />
<path fill="#04937e" opacity="1.00" d=" M 503.08 629.43 C 517.23 620.48 534.45 617.43 550.98 618.09 C 563.03 618.63 575.86 621.58 584.70 630.34 C 593.05 638.52 596.00 650.62 596.10 661.99 C 596.12 680.66 596.10 699.33 596.11 718.00 C 588.02 717.96 579.94 718.07 571.86 717.96 C 568.37 718.02 565.22 715.28 564.47 711.94 C 564.09 709.91 564.25 707.83 564.24 705.80 C 560.53 712.63 553.59 717.27 546.02 718.74 C 537.30 720.46 528.07 720.18 519.57 717.50 C 510.14 714.51 502.05 706.74 499.83 696.96 C 497.85 688.46 499.05 678.67 504.99 671.96 C 510.30 665.83 518.28 662.87 526.07 661.49 C 537.80 659.41 549.76 660.50 561.60 660.21 C 561.58 654.85 559.01 649.34 554.06 646.89 C 544.22 642.23 532.65 644.27 522.82 647.93 C 517.85 649.66 511.94 647.09 509.58 642.44 C 507.30 638.16 505.26 633.76 503.08 629.43 M 532.79 684.77 C 530.92 689.45 533.45 695.18 538.24 696.84 C 545.82 699.51 556.02 697.80 560.18 690.25 C 562.58 686.78 561.49 682.40 561.70 678.48 C 555.46 678.59 549.21 678.22 543.00 678.69 C 538.99 679.07 534.30 680.63 532.79 684.77 Z" />
<path fill="#04937e" opacity="1.00" d=" M 629.56 641.13 C 638.96 629.15 652.64 620.32 667.88 618.32 C 677.30 617.28 687.27 618.64 695.53 623.49 C 704.26 628.80 709.93 638.23 712.11 648.07 C 713.67 654.61 713.58 661.36 713.54 668.04 C 713.53 684.84 713.55 701.64 713.53 718.44 C 702.07 718.44 690.60 718.44 679.13 718.44 C 679.11 700.96 679.18 683.48 679.10 666.00 C 679.00 659.63 677.19 652.08 670.98 649.00 C 663.39 645.56 653.31 647.43 648.16 654.22 C 644.50 658.97 643.72 665.20 643.68 671.02 C 643.65 682.36 643.71 693.71 643.67 705.05 C 643.79 711.88 637.89 718.33 630.98 718.40 C 623.84 718.53 616.69 718.39 609.55 718.44 C 609.55 689.63 609.54 660.81 609.55 632.00 C 609.22 625.74 614.70 619.91 620.97 619.87 C 628.01 619.73 635.07 619.86 642.12 619.83 C 637.94 626.93 633.76 634.04 629.56 641.13 Z" />
<path fill="#04937e" opacity="1.00" d=" M 824.29 622.28 C 835.21 617.77 847.46 617.02 859.04 619.01 C 874.59 621.72 889.04 632.03 895.31 646.71 C 899.56 656.38 900.06 667.20 899.07 677.59 C 875.38 677.60 851.70 677.56 828.02 677.61 C 830.01 683.39 833.86 688.81 839.67 691.21 C 851.24 696.00 865.28 693.32 874.57 685.00 C 878.88 689.47 883.21 693.94 887.46 698.46 C 890.55 701.43 890.01 707.00 886.51 709.42 C 874.01 719.15 857.22 720.79 841.94 719.33 C 826.77 717.91 811.91 710.59 802.83 698.15 C 793.75 686.06 791.85 669.75 795.28 655.30 C 798.84 640.42 810.32 628.13 824.29 622.28 M 839.28 644.26 C 832.88 646.49 828.62 652.74 827.77 659.32 C 841.02 659.34 854.28 659.35 867.54 659.31 C 866.56 655.23 864.96 651.14 861.83 648.22 C 855.98 642.51 846.74 641.71 839.28 644.26 Z" />
<path fill="#04937e" opacity="1.00" d=" M 928.63 626.70 C 940.74 618.64 956.03 616.64 970.20 618.75 C 984.71 620.90 998.40 629.49 1005.75 642.30 C 1011.90 652.91 1012.91 665.61 1011.71 677.59 C 988.03 677.60 964.34 677.56 940.66 677.61 C 942.63 683.31 946.38 688.67 952.07 691.10 C 963.70 696.07 977.86 693.34 987.25 685.00 C 991.58 689.62 996.08 694.10 1000.36 698.77 C 1003.14 701.71 1002.55 706.95 999.29 709.30 C 987.17 718.86 970.86 720.67 955.95 719.46 C 940.86 718.33 925.93 711.53 916.49 699.48 C 906.96 687.79 904.54 671.61 907.50 657.11 C 909.97 644.60 918.04 633.62 928.63 626.70 M 952.80 643.95 C 946.03 645.95 941.18 652.37 940.49 659.32 C 953.71 659.35 966.94 659.34 980.17 659.32 C 979.18 655.08 977.45 650.84 974.12 647.90 C 968.50 642.65 959.93 641.88 952.80 643.95 Z" />
<path fill="#04937e" opacity="1.00" d=" M 522.90 745.07 C 528.25 745.18 533.62 744.84 538.96 745.22 C 539.18 745.44 539.61 745.89 539.83 746.11 C 545.70 755.68 550.75 765.77 556.84 775.21 C 562.42 765.89 567.73 756.42 573.14 747.00 C 573.75 746.02 574.52 744.72 575.91 744.96 C 580.89 744.83 585.88 744.98 590.87 744.93 C 590.88 766.89 590.87 788.86 590.87 810.82 C 585.61 810.74 580.34 810.98 575.08 810.74 C 573.74 810.86 573.13 809.14 573.09 808.08 C 572.82 799.58 573.29 791.07 572.85 782.58 C 571.82 783.33 570.86 784.19 570.36 785.40 C 565.90 793.70 561.27 801.91 556.75 810.18 C 552.27 802.01 547.75 793.87 543.34 785.67 C 542.75 784.49 541.83 783.52 540.90 782.62 C 540.34 791.03 540.88 799.47 540.63 807.89 C 540.68 809.27 539.80 811.13 538.15 810.92 C 533.07 811.02 527.98 810.89 522.90 810.94 C 522.90 788.98 522.90 767.03 522.90 745.07 Z" />
<path fill="#04937e" opacity="1.00" d=" M 699.96 745.22 C 704.67 745.27 709.38 745.10 714.09 745.24 C 716.62 745.12 718.90 747.40 718.62 749.96 C 718.58 757.53 718.82 765.13 718.48 772.68 C 716.13 778.12 712.94 783.18 710.29 788.48 C 720.48 777.89 730.68 767.30 740.87 756.71 C 748.53 756.72 756.19 756.69 763.85 756.72 C 755.25 765.65 746.64 774.57 738.02 783.49 C 746.85 792.67 755.70 801.81 764.53 810.99 C 757.02 811.01 749.52 810.99 742.02 811.00 C 734.21 802.93 726.43 794.82 718.63 786.76 C 718.62 794.82 718.60 802.89 718.62 810.95 C 713.78 810.84 708.92 811.18 704.09 810.80 C 701.39 810.44 699.64 807.71 699.97 805.09 C 699.96 785.14 699.94 765.18 699.96 745.22 Z" />
<path fill="#04937e" opacity="1.00" d=" M 824.32 744.89 C 828.90 744.96 833.48 744.76 838.07 744.93 C 840.29 744.88 842.42 746.74 842.56 748.99 C 842.81 751.54 842.68 754.11 842.66 756.68 C 846.66 756.68 850.67 756.69 854.68 756.69 C 854.71 760.52 854.71 764.35 854.68 768.19 C 850.66 768.18 846.66 768.19 842.65 768.19 C 842.65 775.11 842.69 782.03 842.64 788.96 C 842.66 791.20 842.56 793.93 844.56 795.46 C 847.45 797.96 852.30 794.91 854.70 798.37 C 856.35 801.37 857.15 804.76 858.41 807.93 C 851.26 811.61 842.51 811.73 835.02 809.03 C 828.77 806.76 824.80 800.41 824.49 793.90 C 824.14 785.34 824.44 776.76 824.37 768.19 C 821.82 768.18 819.27 768.18 816.74 768.18 C 816.69 764.35 816.69 760.52 816.74 756.69 C 819.25 756.68 821.78 756.68 824.32 756.68 C 824.30 752.75 824.31 748.82 824.32 744.89 Z" />
<path fill="#04937e" opacity="1.00" d=" M 679.80 757.88 C 683.87 756.25 688.28 755.85 692.63 755.68 C 692.66 761.36 692.63 767.04 692.66 772.73 C 688.60 772.49 684.15 772.24 680.65 774.69 C 677.57 776.66 676.17 780.39 676.03 783.92 C 675.72 791.29 676.13 798.68 675.88 806.06 C 675.87 808.14 674.17 810.25 672.02 810.32 C 667.21 810.58 662.40 810.32 657.60 810.41 C 657.60 794.26 657.60 778.11 657.60 761.95 C 657.35 759.73 658.58 757.21 660.95 756.82 C 665.65 756.45 670.37 756.80 675.09 756.69 C 672.82 759.82 670.57 762.96 668.27 766.07 C 671.72 762.85 675.33 759.59 679.80 757.88 Z" />
<path fill="#04937e" opacity="1.00" d=" M 600.48 762.72 C 609.58 757.24 620.68 755.69 631.09 757.21 C 637.42 758.12 643.87 761.21 647.13 766.96 C 649.98 771.76 650.46 777.50 650.37 782.96 C 650.34 791.99 650.36 801.03 650.36 810.06 C 645.57 809.89 640.75 810.42 636.00 809.80 C 633.46 808.97 633.11 806.01 633.21 803.74 C 630.84 807.71 626.59 810.20 622.05 810.72 C 615.25 811.59 607.41 810.73 602.44 805.51 C 596.27 799.34 596.87 787.29 604.73 782.77 C 612.96 777.94 622.89 779.49 631.99 779.18 C 631.61 776.37 630.56 773.34 627.79 772.08 C 622.11 769.31 615.69 771.14 610.00 772.85 C 604.12 773.56 602.74 766.65 600.48 762.72 M 618.86 789.84 C 615.29 791.17 615.25 796.72 618.57 798.37 C 622.54 800.30 628.24 799.57 630.81 795.70 C 632.35 793.79 631.81 791.21 631.96 788.96 C 627.61 789.15 623.03 788.31 618.86 789.84 Z" />
<path fill="#04937e" opacity="1.00" d=" M 762.32 767.31 C 772.67 753.89 795.20 752.92 806.84 765.13 C 812.85 771.21 814.32 780.27 813.43 788.49 C 800.70 788.51 787.96 788.43 775.23 788.53 C 776.46 791.15 777.93 793.92 780.65 795.28 C 787.00 798.56 794.98 796.94 800.37 792.50 C 802.90 795.39 806.01 797.80 808.11 801.04 C 809.05 803.63 806.83 805.70 804.78 806.82 C 797.04 811.46 787.43 811.77 778.78 810.12 C 769.37 808.19 760.79 801.31 758.06 791.93 C 755.73 783.68 756.87 774.13 762.32 767.31 M 775.03 778.65 C 782.23 778.76 789.43 778.74 796.63 778.67 C 795.55 773.31 790.48 769.27 784.96 769.98 C 779.96 769.90 775.91 773.89 775.03 778.65 Z" />
</g>
</svg>
